<?xml version="1.0" encoding="UTF-8" standalone="no"?>
<!-- Created with Inkscape (http://www.inkscape.org/) -->

<svg
   width="48.431976mm"
   height="10.921665mm"
   viewBox="0 0 48.431976 10.921665"
   version="1.1"
   id="svg5"
   inkscape:version="1.3.2 (091e20ef0f, 2023-11-25, custom)"
   inkscape:export-filename="ec-logo.svg"
   inkscape:export-xdpi="96"
   inkscape:export-ydpi="96"
   sodipodi:docname="ec_logo.svg"
   xmlns:inkscape="http://www.inkscape.org/namespaces/inkscape"
   xmlns:sodipodi="http://sodipodi.sourceforge.net/DTD/sodipodi-0.dtd"
   xmlns="http://www.w3.org/2000/svg"
   xmlns:svg="http://www.w3.org/2000/svg">
  <sodipodi:namedview
     id="namedview7"
     pagecolor="#ffffff"
     bordercolor="#000000"
     borderopacity="0.25"
     inkscape:showpageshadow="2"
     inkscape:pageopacity="0.0"
     inkscape:pagecheckerboard="0"
     inkscape:deskcolor="#d1d1d1"
     inkscape:document-units="mm"
     showgrid="false"
     inkscape:zoom="1.3935167"
     inkscape:cx="139.93374"
     inkscape:cy="176.53179"
     inkscape:window-width="1920"
     inkscape:window-height="1012"
     inkscape:window-x="0"
     inkscape:window-y="32"
     inkscape:window-maximized="1"
     inkscape:current-layer="text1" />
  <defs
     id="defs2">
    <rect
       x="20.305309"
       y="247.50056"
       width="888.49872"
       height="273.345"
       id="rect1" />
  </defs>
  <g
     inkscape:label="Layer 1"
     inkscape:groupmode="layer"
     id="layer1"
     transform="translate(-81.847975,-53.966322)">
    <g
       id="text1"
       style="font-size:32px;line-height:15.1181px;font-family:Digitalix;-inkscape-font-specification:Digitalix;white-space:pre;fill:#ce0c08;stroke-width:5.51433;stroke-linecap:round;stroke-opacity:0.735239"
       transform="matrix(0.26458333,0,0,0.26458333,-16.963766,-9.9349971)"
       aria-label="ECE Forum&#10;College of Engineering Trivandrum">
      <path
         style="font-family:Kalnia;-inkscape-font-specification:Kalnia;text-align:center;text-anchor:middle;fill:#000000"
         d="m 373.4617,264.6528 v -0.32 l 1.952,-0.48 v -21.056 l -1.952,-0.48 v -0.32 h 18.048 l -1.088,8 h -0.416 l -1.024,-5.152 q -0.288,-1.248 -0.992,-1.792 -0.704,-0.576 -1.728,-0.576 h -7.168 v 10.432 h 3.712 q 0.448,0 0.832,-0.224 0.384,-0.256 0.672,-0.608 0.448,-0.512 0.704,-1.44 0.288,-0.928 0.352,-2.016 h 0.32 v 7.968 h -0.32 l -2.144,-3.264 h -4.128 v 10.848 h 7.488 q 1.088,0 1.824,-0.736 0.736,-0.736 1.024,-2.208 l 0.576,-4.928 h 0.416 l 1.088,8.352 z m 41.47198,-4.256 q -1.024,1.632 -2.432,2.688 -1.376,1.024 -3.04,1.536 -1.632,0.512 -3.456,0.512 -2.336,0 -4.288,-0.768 -1.92,-0.8 -3.36,-2.304 -1.408,-1.536 -2.176,-3.68 -0.768,-2.176 -0.768,-4.96 0,-2.688 0.768,-4.864 0.8,-2.176 2.24,-3.744 1.472,-1.6 3.488,-2.432 2.048,-0.864 4.576,-0.864 1.824,0 3.424,0.352 1.6,0.352 2.88,0.992 1.312,0.64 2.176,1.472 l -1.664,8.32 h -0.576 l -0.48,-4.64 q -0.192,-2.08 -0.96,-3.392 -0.768,-1.344 -2.144,-1.984 -1.344,-0.672 -3.392,-0.672 -1.472,0 -2.72,0.8 -1.248,0.8 -2.144,2.24 -0.864,1.408 -1.344,3.296 -0.48,1.888 -0.48,4.064 0,2.336 0.544,4.352 0.576,2.016 1.696,3.52 1.12,1.472 2.816,2.304 1.696,0.832 3.968,0.832 1.952,0 3.648,-0.832 1.696,-0.832 2.88,-2.368 z m 3.64802,4.256 v -0.32 l 1.952,-0.48 v -21.056 l -1.952,-0.48 v -0.32 h 18.048 l -1.088,8 h -0.416 l -1.024,-5.152 q -0.288,-1.248 -0.992,-1.792 -0.704,-0.576 -1.728,-0.576 h -7.168 v 10.432 h 3.712 q 0.448,0 0.832,-0.224 0.384,-0.256 0.672,-0.608 0.448,-0.512 0.704,-1.44 0.288,-0.928 0.352,-2.016 h 0.32 v 7.968 h -0.32 l -2.144,-3.264 h -4.128 v 10.848 h 7.488 q 1.088,0 1.824,-0.736 0.736,-0.736 1.024,-2.208 l 0.576,-4.928 h 0.416 l 1.088,8.352 z m 32.79999,0 v -0.32 l 1.952,-0.48 v -21.056 l -1.952,-0.48 v -0.32 h 18.048 l -1.088,8 h -0.416 l -1.024,-5.152 q -0.288,-1.248 -0.992,-1.792 -0.704,-0.576 -1.728,-0.576 h -7.168 v 10.432 h 4.064 q 0.448,0 0.832,-0.224 0.384,-0.256 0.704,-0.608 0.448,-0.512 0.768,-1.44 0.352,-0.928 0.384,-2.016 h 0.32 v 7.968 h -0.32 l -2.272,-3.264 h -4.48 v 10.592 l 1.952,0.416 v 0.32 z m 26.98598,-16.48 q 1.984,0 3.52,0.608 1.568,0.608 2.624,1.76 1.056,1.12 1.6,2.72 0.544,1.568 0.544,3.52 0,1.824 -0.544,3.36 -0.544,1.504 -1.6,2.656 -1.056,1.12 -2.592,1.728 -1.536,0.608 -3.552,0.608 -2.048,0 -3.616,-0.608 -1.536,-0.608 -2.592,-1.728 -1.056,-1.152 -1.6,-2.656 -0.512,-1.536 -0.512,-3.36 0,-1.952 0.576,-3.52 0.576,-1.6 1.632,-2.72 1.088,-1.152 2.624,-1.76 1.536,-0.608 3.488,-0.608 z m 0,0.416 q -1.568,0 -2.624,1.056 -1.024,1.056 -1.568,2.912 -0.512,1.856 -0.512,4.224 0,1.696 0.256,3.136 0.288,1.44 0.864,2.528 0.608,1.088 1.504,1.696 0.896,0.576 2.08,0.576 1.152,0 2.016,-0.576 0.896,-0.608 1.504,-1.664 0.608,-1.088 0.896,-2.528 0.288,-1.472 0.288,-3.168 0,-1.792 -0.288,-3.264 -0.288,-1.504 -0.864,-2.592 -0.576,-1.12 -1.472,-1.728 -0.896,-0.608 -2.08,-0.608 z m 11.20002,16.064 v -0.32 l 1.76,-0.384 v -14.336 h -1.952 v -0.352 l 5.472,-1.088 v 5.088 l 0.256,0.256 q 0.48,-1.088 0.928,-1.952 0.448,-0.864 0.896,-1.44 0.8,-1.024 1.664,-1.472 0.896,-0.48 1.952,-0.48 0.736,0 1.344,0.288 0.64,0.288 1.024,0.864 0.416,0.544 0.416,1.408 0,0.64 -0.352,1.184 -0.32,0.544 -0.928,0.896 -0.608,0.32 -1.472,0.32 -0.768,0 -1.376,-0.256 -0.608,-0.288 -0.96,-0.768 -0.32,-0.48 -0.32,-1.056 0,-0.256 0.032,-0.416 0.064,-0.192 0.096,-0.352 0.032,-0.192 0.032,-0.288 0,-0.224 -0.16,-0.224 -0.32,0 -0.768,0.576 -0.416,0.544 -0.96,1.632 -0.352,0.64 -0.704,1.536 -0.352,0.896 -0.64,1.856 v 8.576 l 1.792,0.384 v 0.32 z m 21.408,0.48 q -2.272,0 -3.424,-1.408 -1.152,-1.408 -1.152,-4.256 v -9.856 h -1.984 v -0.352 l 5.504,-1.088 v 11.808 q 0,1.888 0.672,2.88 0.672,0.96 1.952,0.96 1.056,0 2.144,-0.736 1.088,-0.768 2.048,-2.048 0.96,-1.312 1.6,-2.944 v -8.48 h -1.952 v -0.352 l 5.472,-1.088 v 15.52 h 1.952 v 0.352 l -5.472,1.088 v -5.28 l -0.256,-0.192 q -1.408,2.72 -3.2,4.096 -1.792,1.376 -3.904,1.376 z m 15.136,-0.48 v -0.32 l 1.76,-0.384 v -14.112 h -1.952 v -0.352 l 5.472,-1.088 v 5.024 l 0.256,0.224 q 0.736,-1.568 1.76,-2.816 1.024,-1.248 2.272,-1.952 1.28,-0.704 2.72,-0.704 1.152,0 2.016,0.352 0.864,0.352 1.44,1.056 0.576,0.672 0.832,1.696 0.288,1.024 0.288,2.368 v 10.304 l 1.824,0.384 v 0.32 h -7.168 v -0.32 l 1.824,-0.384 v -10.624 q 0,-1.92 -0.672,-2.88 -0.64,-0.96 -1.952,-0.96 -0.768,0 -1.568,0.544 -0.768,0.512 -1.504,1.376 -0.736,0.864 -1.344,1.856 -0.576,0.992 -1.024,1.92 v 8.768 l 1.824,0.384 v 0.32 z m 23.104,0 v -0.32 l 1.824,-0.384 v -10.624 q 0,-1.92 -0.672,-2.88 -0.672,-0.96 -1.952,-0.96 -0.8,0 -1.6,0.544 -0.768,0.512 -1.504,1.376 -0.704,0.864 -1.312,1.856 -0.608,0.992 -1.024,1.92 v -1.76 l 0.256,0.224 q 0.736,-1.568 1.728,-2.816 1.024,-1.248 2.304,-1.952 1.28,-0.704 2.688,-0.704 1.28,0 2.144,0.416 0.896,0.384 1.408,1.12 0.544,0.736 0.8,1.76 0.256,1.024 0.256,2.336 v 10.144 l 1.952,0.384 v 0.32 z"
         id="path2" />
      <path
         style="font-size:10.6667px;font-family:Kalnia;-inkscape-font-specification:Kalnia;text-align:center;letter-spacing:-0.17px;word-spacing:-2.33px;text-anchor:middle;fill:#000000"
         d="m 381.17817,279.08352 q -0.34133,0.54401 -0.81066,0.89601 -0.45867,0.34133 -1.01334,0.512 -0.544,0.17067 -1.152,0.17067 -0.77867,0 -1.42934,-0.256 -0.64,-0.26667 -1.12001,-0.76801 -0.46933,-0.512 -0.72533,-1.22667 -0.256,-0.72533 -0.256,-1.65334 0,-0.896 0.256,-1.62133 0.26667,-0.72534 0.74667,-1.24801 0.49067,-0.53333 1.16267,-0.81067 0.68267,-0.288 1.52534,-0.288 0.608,0 1.14133,0.11734 0.53334,0.11733 0.96001,0.33066 0.43733,0.21334 0.72533,0.49067 l -0.55467,2.77334 h -0.192 l -0.16,-1.54667 q -0.064,-0.69333 -0.32,-1.13067 -0.256,-0.448 -0.71467,-0.66133 -0.448,-0.224 -1.13067,-0.224 -0.49067,0 -0.90667,0.26666 -0.416,0.26667 -0.71467,0.74667 -0.288,0.46934 -0.448,1.09867 -0.16,0.62934 -0.16,1.35467 0,0.77867 0.18134,1.45067 0.192,0.67201 0.56533,1.17334 0.37333,0.49067 0.93867,0.768 0.56534,0.27734 1.32267,0.27734 0.65067,0 1.216,-0.27734 0.56534,-0.27733 0.96001,-0.78933 z m 3.72336,-4.07467 q 0.66133,0 1.17333,0.20266 0.52267,0.20267 0.87467,0.58667 0.352,0.37334 0.53334,0.90667 0.18133,0.52267 0.18133,1.17334 0,0.608 -0.18133,1.12 -0.18134,0.50134 -0.53334,0.88534 -0.352,0.37333 -0.864,0.576 -0.512,0.20267 -1.184,0.20267 -0.68267,0 -1.20534,-0.20267 -0.512,-0.20267 -0.864,-0.576 -0.352,-0.384 -0.53334,-0.88534 -0.17066,-0.512 -0.17066,-1.12 0,-0.65067 0.192,-1.17334 0.192,-0.53333 0.544,-0.90667 0.36267,-0.384 0.87467,-0.58667 0.512,-0.20266 1.16267,-0.20266 z m 0,0.13866 q -0.52267,0 -0.87467,0.352 -0.34134,0.352 -0.52267,0.97067 -0.17067,0.61867 -0.17067,1.40801 0,0.56533 0.0853,1.04533 0.096,0.48001 0.288,0.84267 0.20266,0.36267 0.50133,0.56534 0.29867,0.192 0.69334,0.192 0.384,0 0.672,-0.192 0.29867,-0.20267 0.50133,-0.55467 0.20267,-0.36267 0.29867,-0.84267 0.096,-0.49067 0.096,-1.056 0,-0.59734 -0.096,-1.08801 -0.096,-0.50133 -0.288,-0.864 -0.192,-0.37333 -0.49067,-0.576 -0.29866,-0.20267 -0.69333,-0.20267 z m 5.20269,5.14135 0.58667,0.10667 v 0.10667 h -2.35734 v -0.10667 l 0.59733,-0.10667 v -7.25335 h -0.66133 v -0.11734 l 1.83467,-0.36267 z m 3.00868,0 0.58667,0.10667 v 0.10667 h -2.35734 v -0.10667 l 0.59733,-0.10667 v -7.25335 h -0.66133 v -0.11734 l 1.83467,-0.36267 z m 4.09668,-5.28001 q 0.85334,0 1.40801,0.34133 0.56533,0.34133 0.84267,0.928 0.288,0.576 0.288,1.32267 h -4.21335 v -0.10666 l 3.12534,-0.11734 q 0,-0.704 -0.16,-1.19467 -0.16,-0.50133 -0.48,-0.768 -0.32,-0.26667 -0.81067,-0.26667 -0.50133,0 -0.87467,0.288 -0.37333,0.288 -0.576,0.86401 -0.20267,0.576 -0.20267,1.42933 0,0.50134 0.13867,0.96001 0.13867,0.448 0.39467,0.81067 0.256,0.352 0.62933,0.55466 0.37334,0.20267 0.85334,0.20267 0.32,0 0.62934,-0.0853 0.30933,-0.0853 0.576,-0.24534 0.26666,-0.17066 0.48,-0.40533 0.224,-0.24533 0.384,-0.56534 l 0.10667,0.10667 q -0.23467,0.46934 -0.53334,0.77867 -0.29867,0.30933 -0.65067,0.49067 -0.352,0.18133 -0.72533,0.256 -0.37334,0.0747 -0.75734,0.0747 -0.64,0 -1.14134,-0.224 -0.50133,-0.22401 -0.85333,-0.59734 -0.352,-0.384 -0.544,-0.88534 -0.18134,-0.50133 -0.18134,-1.06667 0,-0.65066 0.21334,-1.17333 0.21333,-0.53334 0.58667,-0.91734 0.384,-0.384 0.90667,-0.58667 0.52266,-0.20266 1.14133,-0.20266 z m 5.69669,7.78669 q -0.52267,0 -0.97067,-0.11734 -0.448,-0.11733 -0.77867,-0.30933 -0.33066,-0.192 -0.52266,-0.43734 -0.19201,-0.23466 -0.19201,-0.48 0,-0.23467 0.11734,-0.416 0.11733,-0.17067 0.30933,-0.26667 0.20267,-0.0853 0.448,-0.0853 0.38401,0 0.61867,0.17067 0.23467,0.17066 0.23467,0.448 0,0.224 -0.096,0.352 -0.0853,0.13867 -0.224,0.224 -0.13867,0.0853 -0.27733,0.128 -0.13867,0.0533 -0.23467,0.096 -0.096,0.0533 -0.096,0.10667 0,0.10666 0.20266,0.20267 0.21334,0.096 0.54401,0.16 0.34133,0.064 0.72533,0.064 0.61867,0 1.07734,-0.18134 0.46933,-0.17067 0.71467,-0.48 0.256,-0.30933 0.256,-0.72534 0,-0.37333 -0.20267,-0.64 -0.20267,-0.26666 -0.64,-0.42667 -0.42667,-0.16 -1.14134,-0.23466 -0.704,-0.0747 -1.728,-0.0747 v -0.16 l 1.36533,-1.088 0.11734,0.0853 -0.77867,0.65067 0.0427,0.096 q 0.87467,0 1.54667,0.064 0.68267,0.0533 1.17333,0.192 0.49067,0.128 0.81067,0.32 0.32,0.192 0.46934,0.45867 0.14933,0.26667 0.14933,0.608 0,0.576 -0.37333,0.94934 -0.37334,0.37333 -1.05601,0.55467 -0.68266,0.192 -1.61067,0.192 z m 0.288,-4.00002 q -0.55466,0 -1.03467,-0.11733 -0.48,-0.11733 -0.84267,-0.33067 -0.36266,-0.224 -0.576,-0.55467 -0.20266,-0.33066 -0.20266,-0.768 0,-0.43733 0.20266,-0.8 0.20267,-0.37334 0.55467,-0.64 0.36267,-0.27734 0.85334,-0.42667 0.49067,-0.14933 1.06667,-0.14933 0.52267,0 0.992,0.14933 0.48,0.13867 0.85334,0.40533 0.384,0.256 0.59733,0.62934 0.224,0.37333 0.224,0.832 0,0.36267 -0.17067,0.68267 -0.16,0.32 -0.49066,0.56534 -0.33067,0.24533 -0.84267,0.384 -0.512,0.13866 -1.18401,0.13866 z m 0.0213,-0.13866 q 0.46933,0 0.78933,-0.18134 0.33067,-0.192 0.50134,-0.53333 0.18133,-0.352 0.18133,-0.82134 0,-0.55467 -0.17067,-0.992 -0.17066,-0.448 -0.50133,-0.71467 -0.32,-0.26667 -0.8,-0.26667 -0.46934,0 -0.81067,0.26667 -0.33067,0.26667 -0.50134,0.71467 -0.17066,0.43733 -0.17066,0.992 0,0.45867 0.17066,0.81067 0.18134,0.34134 0.512,0.53334 0.34134,0.192 0.80001,0.192 z m 0.87467,-3.40268 -0.60801,-0.20267 q 0.23467,0 0.46934,-0.0533 0.24533,-0.0533 0.48,-0.13867 0.23467,-0.096 0.448,-0.192 0.21334,-0.096 0.39467,-0.18133 0.192,-0.0853 0.33067,-0.14934 l 0.29867,0.74667 h -1.81334 z m 5.56869,-0.24533 q 0.85334,0 1.408,0.34133 0.56534,0.34133 0.84267,0.928 0.28801,0.576 0.28801,1.32267 h -4.21335 v -0.10666 l 3.12534,-0.11734 q 0,-0.704 -0.16,-1.19467 -0.16,-0.50133 -0.48,-0.768 -0.32,-0.26667 -0.81067,-0.26667 -0.50133,0 -0.87467,0.288 -0.37333,0.288 -0.576,0.86401 -0.20267,0.576 -0.20267,1.42933 0,0.50134 0.13867,0.96001 0.13867,0.448 0.39467,0.81067 0.256,0.352 0.62933,0.55466 0.37334,0.20267 0.85334,0.20267 0.32,0 0.62933,-0.0853 0.30934,-0.0853 0.57601,-0.24534 0.26666,-0.17066 0.48,-0.40533 0.224,-0.24533 0.384,-0.56534 l 0.10667,0.10667 q -0.23467,0.46934 -0.53334,0.77867 -0.29867,0.30933 -0.65067,0.49067 -0.352,0.18133 -0.72533,0.256 -0.37334,0.0747 -0.75734,0.0747 -0.64,0 -1.14134,-0.224 -0.50133,-0.22401 -0.85333,-0.59734 -0.352,-0.384 -0.544,-0.88534 -0.18134,-0.50133 -0.18134,-1.06667 0,-0.65066 0.21334,-1.17333 0.21333,-0.53334 0.58666,-0.91734 0.38401,-0.384 0.90667,-0.58667 0.52267,-0.20266 1.14134,-0.20266 z m 7.34604,0 q 0.66134,0 1.17334,0.20266 0.52267,0.20267 0.87467,0.58667 0.352,0.37334 0.53333,0.90667 0.18134,0.52267 0.18134,1.17334 0,0.608 -0.18134,1.12 -0.18133,0.50134 -0.53333,0.88534 -0.352,0.37333 -0.864,0.576 -0.51201,0.20267 -1.18401,0.20267 -0.68267,0 -1.20534,-0.20267 -0.512,-0.20267 -0.864,-0.576 -0.352,-0.384 -0.53333,-0.88534 -0.17067,-0.512 -0.17067,-1.12 0,-0.65067 0.192,-1.17334 0.192,-0.53333 0.544,-0.90667 0.36267,-0.384 0.87467,-0.58667 0.512,-0.20266 1.16267,-0.20266 z m 0,0.13866 q -0.52267,0 -0.87467,0.352 -0.34133,0.352 -0.52267,0.97067 -0.17066,0.61867 -0.17066,1.40801 0,0.56533 0.0853,1.04533 0.096,0.48001 0.288,0.84267 0.20267,0.36267 0.50134,0.56534 0.29866,0.192 0.69333,0.192 0.384,0 0.672,-0.192 0.29867,-0.20267 0.50134,-0.55467 0.20267,-0.36267 0.29867,-0.84267 0.096,-0.49067 0.096,-1.056 0,-0.59734 -0.096,-1.08801 -0.096,-0.50133 -0.288,-0.864 -0.19201,-0.37333 -0.49067,-0.576 -0.29867,-0.20267 -0.69334,-0.20267 z m 3.48869,5.35469 v -0.10667 l 0.66133,-0.10667 v -4.90668 h -0.66133 v -0.10667 l 0.66133,-0.10666 q -0.032,-0.40534 -0.032,-0.78934 0.0107,-0.39467 0.064,-0.672 0.0747,-0.39467 0.288,-0.65067 0.224,-0.256 0.58667,-0.37334 0.37333,-0.128 0.88534,-0.128 0.37333,0 0.672,0.0747 0.30933,0.064 0.544,0.20267 0.23467,0.13867 0.36267,0.33067 0.128,0.192 0.128,0.43733 0,0.224 -0.128,0.37334 -0.11734,0.13866 -0.33067,0.21333 -0.21333,0.0747 -0.46933,0.0747 -0.39467,0 -0.67201,-0.16 -0.27733,-0.17067 -0.27733,-0.48001 0,-0.18133 0.0853,-0.30933 0.096,-0.128 0.20267,-0.224 0.11733,-0.096 0.20267,-0.17067 0.0853,-0.0747 0.0853,-0.14933 0,-0.0533 -0.0853,-0.0747 -0.0853,-0.0213 -0.29867,-0.0213 -0.43734,0 -0.62934,0.224 -0.192,0.21333 -0.192,0.65067 0,0.20266 0.0213,0.48 0.032,0.26667 0.064,0.56533 0.0427,0.288 0.096,0.57601 l 1.22667,0.064 v 0.128 h -1.22667 v 4.92801 l 0.71467,0.10667 v 0.10667 z m 5.1487,0 v -0.10667 l 0.65067,-0.16 v -7.01869 l -0.65067,-0.16 v -0.10667 h 6.01602 l -0.36267,2.66668 h -0.13867 l -0.34133,-1.71734 q -0.096,-0.416 -0.33067,-0.59734 -0.23467,-0.192 -0.576,-0.192 h -2.38934 v 3.47735 h 1.23733 q 0.14934,0 0.27734,-0.0747 0.128,-0.0853 0.224,-0.20267 0.14933,-0.17066 0.23467,-0.48 0.096,-0.30933 0.11733,-0.672 h 0.10667 v 2.65601 h -0.10667 l -0.71467,-1.08801 h -1.376 v 3.61602 h 2.496 q 0.36267,0 0.60801,-0.24534 0.24533,-0.24533 0.34133,-0.736 l 0.192,-1.64267 h 0.13867 l 0.36267,2.78401 z m 13.4087,-0.10667 v 0.10667 h -2.43201 v -0.10667 l 0.608,-0.10667 v -3.56268 q 0,-0.64 -0.224,-0.96 -0.224,-0.32 -0.65067,-0.32 -0.288,0 -0.576,0.18133 -0.27733,0.18134 -0.544,0.46934 -0.256,0.288 -0.46933,0.61867 -0.21334,0.33066 -0.352,0.62933 v 2.94401 l 0.608,0.10667 v 0.10667 h -2.36801 v -0.10667 l 0.58667,-0.10667 v -4.80001 h -0.65067 v -0.11734 l 1.82401,-0.36266 v 1.74933 l 0.0853,0.0747 q 0.29867,-0.55467 0.65067,-0.96 0.36267,-0.416 0.78933,-0.64 0.43734,-0.224 0.92801,-0.224 0.42666,0 0.71467,0.13866 0.288,0.128 0.46933,0.37334 0.18133,0.24533 0.26667,0.58667 0.0853,0.34133 0.0853,0.77866 v 3.40268 z m 2.88069,2.40001 q -0.52267,0 -0.97067,-0.11734 -0.448,-0.11733 -0.77867,-0.30933 -0.33067,-0.192 -0.52267,-0.43734 -0.192,-0.23466 -0.192,-0.48 0,-0.23467 0.11734,-0.416 0.11733,-0.17067 0.30933,-0.26667 0.20267,-0.0853 0.448,-0.0853 0.384,0 0.61867,0.17067 0.23467,0.17066 0.23467,0.448 0,0.224 -0.096,0.352 -0.0853,0.13867 -0.224,0.224 -0.13867,0.0853 -0.27734,0.128 -0.13867,0.0533 -0.23467,0.096 -0.096,0.0533 -0.096,0.10667 0,0.10666 0.20267,0.20267 0.21334,0.096 0.544,0.16 0.34134,0.064 0.72534,0.064 0.61867,0 1.07734,-0.18134 0.46933,-0.17067 0.71466,-0.48 0.25601,-0.30933 0.25601,-0.72534 0,-0.37333 -0.20267,-0.64 -0.20267,-0.26666 -0.64,-0.42667 -0.42667,-0.16 -1.14134,-0.23466 -0.704,-0.0747 -1.72801,-0.0747 v -0.16 l 1.36534,-1.088 0.11733,0.0853 -0.77866,0.65067 0.0427,0.096 q 0.87467,0 1.54667,0.064 0.68267,0.0533 1.17334,0.192 0.49067,0.128 0.81067,0.32 0.32,0.192 0.46934,0.45867 0.14933,0.26667 0.14933,0.608 0,0.576 -0.37334,0.94934 -0.37333,0.37333 -1.056,0.55467 -0.68267,0.192 -1.61067,0.192 z m 0.288,-4.00002 q -0.55467,0 -1.03467,-0.11733 -0.48,-0.11733 -0.84267,-0.33067 -0.36267,-0.224 -0.576,-0.55467 -0.20267,-0.33066 -0.20267,-0.768 0,-0.43733 0.20267,-0.8 0.20267,-0.37334 0.55467,-0.64 0.36267,-0.27734 0.85333,-0.42667 0.49067,-0.14933 1.06667,-0.14933 0.52267,0 0.99201,0.14933 0.48,0.13867 0.85333,0.40533 0.384,0.256 0.59734,0.62934 0.224,0.37333 0.224,0.832 0,0.36267 -0.17067,0.68267 -0.16,0.32 -0.49067,0.56534 -0.33066,0.24533 -0.84267,0.384 -0.512,0.13866 -1.184,0.13866 z m 0.0213,-0.13866 q 0.46934,0 0.78934,-0.18134 0.33067,-0.192 0.50133,-0.53333 0.18134,-0.352 0.18134,-0.82134 0,-0.55467 -0.17067,-0.992 -0.17067,-0.448 -0.50133,-0.71467 -0.32,-0.26667 -0.80001,-0.26667 -0.46933,0 -0.81067,0.26667 -0.33066,0.26667 -0.50133,0.71467 -0.17067,0.43733 -0.17067,0.992 0,0.45867 0.17067,0.81067 0.18133,0.34134 0.512,0.53334 0.34134,0.192 0.8,0.192 z m 0.87467,-3.40268 -0.608,-0.20267 q 0.23467,0 0.46934,-0.0533 0.24533,-0.0533 0.48,-0.13867 0.23466,-0.096 0.448,-0.192 0.21333,-0.096 0.39467,-0.18133 0.192,-0.0853 0.33066,-0.14934 l 0.29867,0.74667 h -1.81334 z m 3.83002,-1.10934 q -0.27734,0 -0.49067,-0.0853 -0.21333,-0.0853 -0.33067,-0.23467 -0.11733,-0.14933 -0.11733,-0.34133 0,-0.20267 0.11733,-0.34134 0.11734,-0.14933 0.33067,-0.23466 0.21333,-0.0853 0.49067,-0.0853 0.27733,0 0.49067,0.0853 0.21333,0.0853 0.33066,0.23466 0.128,0.13867 0.128,0.34134 0,0.192 -0.128,0.34133 -0.11733,0.14934 -0.33066,0.23467 -0.21334,0.0853 -0.49067,0.0853 z m -1.12001,6.35736 v -0.10667 l 0.59734,-0.10667 v -4.80001 h -0.66134 v -0.11734 l 1.83468,-0.36266 v 5.28001 l 0.58666,0.10667 v 0.10667 z m 9.53671,-0.10667 v 0.10667 h -2.43201 v -0.10667 l 0.608,-0.10667 v -3.56268 q 0,-0.64 -0.224,-0.96 -0.224,-0.32 -0.65067,-0.32 -0.288,0 -0.576,0.18133 -0.27734,0.18134 -0.544,0.46934 -0.256,0.288 -0.46934,0.61867 -0.21333,0.33066 -0.352,0.62933 v 2.94401 l 0.608,0.10667 v 0.10667 h -2.368 v -0.10667 l 0.58666,-0.10667 v -4.80001 h -0.65067 v -0.11734 l 1.82401,-0.36266 v 1.74933 l 0.0853,0.0747 q 0.29867,-0.55467 0.65067,-0.96 0.36267,-0.416 0.78934,-0.64 0.43733,-0.224 0.928,-0.224 0.42667,0 0.71467,0.13866 0.288,0.128 0.46934,0.37334 0.18133,0.24533 0.26666,0.58667 0.0853,0.34133 0.0853,0.77866 v 3.40268 z m 3.44602,-5.38668 q 0.85333,0 1.408,0.34133 0.56534,0.34133 0.84267,0.928 0.288,0.576 0.288,1.32267 h -4.21335 v -0.10666 l 3.12535,-0.11734 q 0,-0.704 -0.16,-1.19467 -0.16,-0.50133 -0.48001,-0.768 -0.32,-0.26667 -0.81066,-0.26667 -0.50134,0 -0.87467,0.288 -0.37334,0.288 -0.57601,0.86401 -0.20266,0.576 -0.20266,1.42933 0,0.50134 0.13866,0.96001 0.13867,0.448 0.39467,0.81067 0.256,0.352 0.62934,0.55466 0.37333,0.20267 0.85333,0.20267 0.32,0 0.62934,-0.0853 0.30933,-0.0853 0.576,-0.24534 0.26667,-0.17066 0.48,-0.40533 0.224,-0.24533 0.384,-0.56534 l 0.10667,0.10667 q -0.23467,0.46934 -0.53333,0.77867 -0.29867,0.30933 -0.65067,0.49067 -0.352,0.18133 -0.72534,0.256 -0.37333,0.0747 -0.75733,0.0747 -0.64001,0 -1.14134,-0.224 -0.50134,-0.22401 -0.85334,-0.59734 -0.352,-0.384 -0.544,-0.88534 -0.18133,-0.50133 -0.18133,-1.06667 0,-0.65066 0.21333,-1.17333 0.21333,-0.53334 0.58667,-0.91734 0.384,-0.384 0.90667,-0.58667 0.52267,-0.20266 1.14134,-0.20266 z m 6.26202,0 q 0.85334,0 1.408,0.34133 0.56534,0.34133 0.84267,0.928 0.288,0.576 0.288,1.32267 h -4.21334 v -0.10666 l 3.12534,-0.11734 q 0,-0.704 -0.16,-1.19467 -0.16,-0.50133 -0.48,-0.768 -0.32,-0.26667 -0.81067,-0.26667 -0.50134,0 -0.87467,0.288 -0.37333,0.288 -0.576,0.86401 -0.20267,0.576 -0.20267,1.42933 0,0.50134 0.13867,0.96001 0.13867,0.448 0.39467,0.81067 0.256,0.352 0.62933,0.55466 0.37334,0.20267 0.85334,0.20267 0.32,0 0.62933,-0.0853 0.30934,-0.0853 0.576,-0.24534 0.26667,-0.17066 0.48001,-0.40533 0.224,-0.24533 0.384,-0.56534 l 0.10666,0.10667 q -0.23466,0.46934 -0.53333,0.77867 -0.29867,0.30933 -0.65067,0.49067 -0.352,0.18133 -0.72534,0.256 -0.37333,0.0747 -0.75733,0.0747 -0.64,0 -1.14134,-0.224 -0.50133,-0.22401 -0.85333,-0.59734 -0.352,-0.384 -0.54401,-0.88534 -0.18133,-0.50133 -0.18133,-1.06667 0,-0.65066 0.21333,-1.17333 0.21334,-0.53334 0.58667,-0.91734 0.384,-0.384 0.90667,-0.58667 0.52267,-0.20266 1.14134,-0.20266 z m 3.41402,5.49335 v -0.10667 l 0.58667,-0.128 v -4.77868 h -0.65067 v -0.11734 l 1.82401,-0.36266 v 1.696 l 0.0853,0.0853 q 0.16,-0.36266 0.30934,-0.65066 0.14933,-0.28801 0.29866,-0.48001 0.26667,-0.34133 0.55467,-0.49066 0.29867,-0.16 0.65067,-0.16 0.24533,0 0.448,0.096 0.21334,0.096 0.34134,0.288 0.13866,0.18133 0.13866,0.46933 0,0.21334 -0.11733,0.39467 -0.10667,0.18133 -0.30933,0.29867 -0.20267,0.10666 -0.49067,0.10666 -0.256,0 -0.45867,-0.0853 -0.20267,-0.096 -0.32,-0.256 -0.10667,-0.16 -0.10667,-0.352 0,-0.0853 0.0107,-0.13867 0.0213,-0.064 0.032,-0.11733 0.0107,-0.064 0.0107,-0.096 0,-0.0747 -0.0533,-0.0747 -0.10667,0 -0.256,0.192 -0.13867,0.18133 -0.32,0.544 -0.11733,0.21334 -0.23467,0.512 -0.11733,0.29867 -0.21333,0.61867 v 2.85868 l 0.59733,0.128 v 0.10667 z m 6.12335,-6.35736 q -0.27733,0 -0.49066,-0.0853 -0.21334,-0.0853 -0.33067,-0.23467 -0.11734,-0.14933 -0.11734,-0.34133 0,-0.20267 0.11734,-0.34134 0.11733,-0.14933 0.33067,-0.23466 0.21333,-0.0853 0.49066,-0.0853 0.27734,0 0.49067,0.0853 0.21334,0.0853 0.33067,0.23466 0.128,0.13867 0.128,0.34134 0,0.192 -0.128,0.34133 -0.11733,0.14934 -0.33067,0.23467 -0.21333,0.0853 -0.49067,0.0853 z m -1.12,6.35736 v -0.10667 l 0.59734,-0.10667 v -4.80001 h -0.66134 v -0.11734 l 1.83467,-0.36266 v 5.28001 l 0.58667,0.10667 v 0.10667 z m 9.53669,-0.10667 v 0.10667 h -2.432 v -0.10667 l 0.608,-0.10667 v -3.56268 q 0,-0.64 -0.224,-0.96 -0.224,-0.32 -0.65067,-0.32 -0.288,0 -0.576,0.18133 -0.27734,0.18134 -0.544,0.46934 -0.256,0.288 -0.46934,0.61867 -0.21333,0.33066 -0.352,0.62933 v 2.94401 l 0.608,0.10667 v 0.10667 h -2.36801 v -0.10667 l 0.58667,-0.10667 v -4.80001 h -0.65067 v -0.11734 l 1.82401,-0.36266 v 1.74933 l 0.0853,0.0747 q 0.29867,-0.55467 0.65067,-0.96 0.36267,-0.416 0.78934,-0.64 0.43733,-0.224 0.928,-0.224 0.42667,0 0.71467,0.13866 0.288,0.128 0.46933,0.37334 0.18134,0.24533 0.26667,0.58667 0.0853,0.34133 0.0853,0.77866 v 3.40268 z m 2.88069,2.40001 q -0.52267,0 -0.97067,-0.11734 -0.448,-0.11733 -0.77867,-0.30933 -0.33067,-0.192 -0.52267,-0.43734 -0.192,-0.23466 -0.192,-0.48 0,-0.23467 0.11734,-0.416 0.11733,-0.17067 0.30933,-0.26667 0.20267,-0.0853 0.448,-0.0853 0.384,0 0.61867,0.17067 0.23467,0.17066 0.23467,0.448 0,0.224 -0.096,0.352 -0.0853,0.13867 -0.224,0.224 -0.13867,0.0853 -0.27734,0.128 -0.13866,0.0533 -0.23466,0.096 -0.096,0.0533 -0.096,0.10667 0,0.10666 0.20267,0.20267 0.21334,0.096 0.544,0.16 0.34134,0.064 0.72534,0.064 0.61867,0 1.07734,-0.18134 0.46933,-0.17067 0.71467,-0.48 0.256,-0.30933 0.256,-0.72534 0,-0.37333 -0.20267,-0.64 -0.20267,-0.26666 -0.64,-0.42667 -0.42667,-0.16 -1.14134,-0.23466 -0.704,-0.0747 -1.72801,-0.0747 v -0.16 l 1.36534,-1.088 0.11734,0.0853 -0.77867,0.65067 0.0427,0.096 q 0.87467,0 1.54667,0.064 0.68267,0.0533 1.17334,0.192 0.49067,0.128 0.81067,0.32 0.32,0.192 0.46934,0.45867 0.14933,0.26667 0.14933,0.608 0,0.576 -0.37333,0.94934 -0.37334,0.37333 -1.05601,0.55467 -0.68267,0.192 -1.61067,0.192 z m 0.288,-4.00002 q -0.55467,0 -1.03467,-0.11733 -0.48,-0.11733 -0.84267,-0.33067 -0.36267,-0.224 -0.576,-0.55467 -0.20267,-0.33066 -0.20267,-0.768 0,-0.43733 0.20267,-0.8 0.20267,-0.37334 0.55467,-0.64 0.36267,-0.27734 0.85333,-0.42667 0.49067,-0.14933 1.06667,-0.14933 0.52267,0 0.99201,0.14933 0.48,0.13867 0.85333,0.40533 0.384,0.256 0.59734,0.62934 0.224,0.37333 0.224,0.832 0,0.36267 -0.17067,0.68267 -0.16,0.32 -0.49067,0.56534 -0.33066,0.24533 -0.84267,0.384 -0.512,0.13866 -1.184,0.13866 z m 0.0213,-0.13866 q 0.46934,0 0.78934,-0.18134 0.33067,-0.192 0.50134,-0.53333 0.18133,-0.352 0.18133,-0.82134 0,-0.55467 -0.17067,-0.992 -0.17067,-0.448 -0.50133,-0.71467 -0.32,-0.26667 -0.80001,-0.26667 -0.46933,0 -0.81066,0.26667 -0.33067,0.26667 -0.50134,0.71467 -0.17067,0.43733 -0.17067,0.992 0,0.45867 0.17067,0.81067 0.18133,0.34134 0.512,0.53334 0.34134,0.192 0.8,0.192 z m 0.87467,-3.40268 -0.608,-0.20267 q 0.23467,0 0.46934,-0.0533 0.24533,-0.0533 0.48,-0.13867 0.23467,-0.096 0.448,-0.192 0.21333,-0.096 0.39467,-0.18133 0.192,-0.0853 0.33067,-0.14934 l 0.29866,0.74667 h -1.81334 z m 5.98071,5.24802 v -0.10667 l 0.65067,-0.13867 v -7.14669 h -1.056 q -0.288,0 -0.512,0.128 -0.21334,0.11734 -0.352,0.39467 -0.13867,0.27734 -0.21334,0.74667 l -0.224,1.408 h -0.18133 l -0.30934,-2.83734 h 6.93336 l -0.30934,2.83734 h -0.18133 l -0.224,-1.36533 q -0.064,-0.49067 -0.20267,-0.76801 -0.13867,-0.288 -0.36267,-0.416 -0.21333,-0.128 -0.512,-0.128 h -1.06667 v 7.14669 l 0.66134,0.13867 v 0.10667 z m 5.43002,0 v -0.10667 l 0.58667,-0.128 v -4.77868 h -0.65067 v -0.11734 l 1.824,-0.36266 v 1.696 l 0.0853,0.0853 q 0.16,-0.36266 0.30933,-0.65066 0.14934,-0.28801 0.29867,-0.48001 0.26667,-0.34133 0.55467,-0.49066 0.29867,-0.16 0.65067,-0.16 0.24533,0 0.448,0.096 0.21333,0.096 0.34133,0.288 0.13867,0.18133 0.13867,0.46933 0,0.21334 -0.11733,0.39467 -0.10667,0.18133 -0.30934,0.29867 -0.20266,0.10666 -0.49067,0.10666 -0.256,0 -0.45866,-0.0853 -0.20267,-0.096 -0.32,-0.256 -0.10667,-0.16 -0.10667,-0.352 0,-0.0853 0.0107,-0.13867 0.0213,-0.064 0.032,-0.11733 0.0107,-0.064 0.0107,-0.096 0,-0.0747 -0.0533,-0.0747 -0.10667,0 -0.256,0.192 -0.13867,0.18133 -0.32,0.544 -0.11734,0.21334 -0.23467,0.512 -0.11733,0.29867 -0.21334,0.61867 v 2.85868 l 0.59734,0.128 v 0.10667 z m 6.12336,-6.35736 q -0.27734,0 -0.49067,-0.0853 -0.21333,-0.0853 -0.33067,-0.23467 -0.11733,-0.14933 -0.11733,-0.34133 0,-0.20267 0.11733,-0.34134 0.11734,-0.14933 0.33067,-0.23466 0.21333,-0.0853 0.49067,-0.0853 0.27733,0 0.49067,0.0853 0.21333,0.0853 0.33066,0.23466 0.12801,0.13867 0.12801,0.34134 0,0.192 -0.12801,0.34133 -0.11733,0.14934 -0.33066,0.23467 -0.21334,0.0853 -0.49067,0.0853 z m -1.12,6.35736 v -0.10667 l 0.59733,-0.10667 v -4.80001 h -0.66133 v -0.11734 l 1.83467,-0.36266 v 5.28001 l 0.58667,0.10667 v 0.10667 z m 5.43001,0 -2.09067,-5.12002 -0.62934,-0.10667 v -0.10666 h 2.58134 v 0.10666 l -0.672,0.096 1.65334,4.13868 h 0.128 l 0.896,-2.51734 q 0.0533,-0.13867 0.0747,-0.32 0.0213,-0.18133 0.0213,-0.384 0,-0.18133 -0.0533,-0.352 -0.0427,-0.18134 -0.17067,-0.33067 -0.11733,-0.14933 -0.32,-0.23467 -0.192,-0.096 -0.49067,-0.096 v -0.10666 h 2.36801 v 0.10666 l -0.672,0.10667 -1.88801,5.12002 z m 6.35435,-5.49335 q 0.61867,0 1.05601,0.14933 0.448,0.13867 0.736,0.43733 0.288,0.29867 0.416,0.75734 0.128,0.448 0.128,1.06667 v 2.70934 q 0,0.16 0.064,0.23467 0.0747,0.0747 0.192,0.0747 0.128,0 0.288,-0.0747 0.17067,-0.0747 0.33067,-0.192 v 0.11733 q -0.128,0.11734 -0.30933,0.20267 -0.17067,0.0853 -0.36267,0.128 -0.192,0.0427 -0.37334,0.0427 -0.46933,0 -0.736,-0.24534 -0.26667,-0.256 -0.26667,-0.82133 0,-0.21334 0,-0.30934 0,-0.10667 0,-0.16 0,-0.0533 0,-0.11733 l -0.0853,-0.064 q -0.20267,0.40533 -0.49067,0.72533 -0.27733,0.32 -0.62933,0.544 -0.34134,0.21334 -0.70401,0.33067 -0.36266,0.11734 -0.72533,0.11734 -0.39467,0 -0.71467,-0.13867 -0.32,-0.128 -0.512,-0.384 -0.192,-0.26667 -0.192,-0.65067 0,-0.90667 1.03467,-1.37601 1.03467,-0.48 3.01867,-0.48 0,-0.90667 -0.13866,-1.42933 -0.13867,-0.53334 -0.48,-0.76801 -0.34134,-0.23466 -0.93867,-0.23466 -0.39467,0 -0.70401,0.0747 -0.29866,0.064 -0.46933,0.16 -0.16,0.096 -0.16,0.17067 0,0.0533 0.096,0.11733 0.10667,0.0533 0.37333,0.16 0.49067,0.19201 0.49067,0.54401 0,0.32 -0.27733,0.49066 -0.27734,0.16001 -0.67201,0.16001 -0.384,0 -0.66133,-0.17067 -0.26667,-0.17067 -0.26667,-0.49067 0,-0.256 0.21334,-0.50134 0.224,-0.256 0.58666,-0.45866 0.37334,-0.20267 0.84267,-0.32 0.48,-0.128 1.00267,-0.128 z m 1.16267,2.752 q -1.01333,0 -1.67467,0.224 -0.66133,0.21334 -0.98133,0.58667 -0.32001,0.37334 -0.32001,0.83201 0,0.27733 0.10667,0.45866 0.11733,0.17067 0.30934,0.256 0.192,0.0853 0.43733,0.0853 0.26667,0 0.56534,-0.096 0.30933,-0.10667 0.608,-0.32 0.29866,-0.21334 0.544,-0.53334 0.256,-0.33067 0.40533,-0.77867 z m 8.97136,2.63468 v 0.10667 h -2.43201 v -0.10667 l 0.608,-0.10667 v -3.56268 q 0,-0.64 -0.224,-0.96 -0.224,-0.32 -0.65067,-0.32 -0.288,0 -0.576,0.18133 -0.27733,0.18134 -0.544,0.46934 -0.256,0.288 -0.46934,0.61867 -0.21333,0.33066 -0.352,0.62933 v 2.94401 l 0.60801,0.10667 v 0.10667 h -2.36801 v -0.10667 l 0.58667,-0.10667 v -4.80001 h -0.65067 v -0.11734 l 1.824,-0.36266 v 1.74933 l 0.0853,0.0747 q 0.29866,-0.55467 0.65067,-0.96 0.36266,-0.416 0.78933,-0.64 0.43734,-0.224 0.928,-0.224 0.42667,0 0.71467,0.13866 0.288,0.128 0.46934,0.37334 0.18133,0.24533 0.26667,0.58667 0.0853,0.34133 0.0853,0.77866 v 3.40268 z m 6.05936,-7.84003 v 7.57336 h 0.66134 v 0.10667 l -1.83468,0.42667 v -1.67468 l -0.0853,-0.0853 q -0.11733,0.30934 -0.30933,0.62934 -0.18134,0.30933 -0.43734,0.56533 -0.256,0.256 -0.58667,0.40534 -0.32,0.16 -0.704,0.16 -0.64,0 -1.13067,-0.352 -0.49067,-0.35201 -0.768,-0.97067 -0.26667,-0.61867 -0.26667,-1.40801 0,-0.94934 0.32,-1.6 0.32,-0.65067 0.85334,-0.98134 0.544,-0.34133 1.20533,-0.34133 0.49067,0 0.87467,0.17066 0.39467,0.16 0.66134,0.416 0.26667,0.256 0.37333,0.54401 v -3.04001 h -0.65067 v -0.11734 z m -2.62401,2.76268 q -0.49067,0 -0.864,0.33067 -0.36267,0.32 -0.56534,0.87467 -0.20266,0.55467 -0.20266,1.26933 0,0.77867 0.17066,1.32267 0.17067,0.54401 0.46934,0.83201 0.30933,0.27733 0.736,0.27733 0.32,0 0.576,-0.16 0.26667,-0.16 0.48,-0.43733 0.21334,-0.27734 0.37334,-0.64001 0.16,-0.36266 0.27733,-0.77866 v -1.15201 q 0,-0.34133 -0.10666,-0.65067 -0.10667,-0.32 -0.29867,-0.55467 -0.192,-0.24533 -0.45867,-0.384 -0.26667,-0.14933 -0.58667,-0.14933 z m 3.93669,5.18402 v -0.10667 l 0.58667,-0.128 v -4.77868 h -0.65067 v -0.11734 l 1.82401,-0.36266 v 1.696 l 0.0853,0.0853 q 0.16,-0.36266 0.30934,-0.65066 0.14933,-0.28801 0.29866,-0.48001 0.26667,-0.34133 0.55467,-0.49066 0.29867,-0.16 0.65067,-0.16 0.24533,0 0.448,0.096 0.21334,0.096 0.34134,0.288 0.13866,0.18133 0.13866,0.46933 0,0.21334 -0.11733,0.39467 -0.10667,0.18133 -0.30933,0.29867 -0.20267,0.10666 -0.49067,0.10666 -0.256,0 -0.45867,-0.0853 -0.20267,-0.096 -0.32,-0.256 -0.10667,-0.16 -0.10667,-0.352 0,-0.0853 0.0107,-0.13867 0.0213,-0.064 0.032,-0.11733 0.0107,-0.064 0.0107,-0.096 0,-0.0747 -0.0533,-0.0747 -0.10667,0 -0.256,0.192 -0.13867,0.18133 -0.32,0.544 -0.11733,0.21334 -0.23467,0.512 -0.11733,0.29867 -0.21333,0.61867 v 2.85868 l 0.59733,0.128 v 0.10667 z m 6.96603,0.16 q -0.75733,0 -1.14134,-0.46934 -0.384,-0.46933 -0.384,-1.41867 v -3.28534 h -0.66133 v -0.11734 l 1.83467,-0.36266 v 3.93601 q 0,0.62933 0.224,0.96 0.224,0.32 0.65067,0.32 0.352,0 0.71467,-0.24533 0.36267,-0.256 0.68267,-0.68267 0.32,-0.43734 0.53333,-0.98134 v -2.82667 h -0.65067 v -0.11734 l 1.82401,-0.36266 v 5.17334 h 0.65067 v 0.11734 l -1.82401,0.36267 v -1.76001 l -0.0853,-0.064 q -0.46934,0.90667 -1.06667,1.36534 -0.59734,0.45867 -1.30134,0.45867 z m 4.87534,-0.16 v -0.10667 l 0.58667,-0.128 v -4.70402 h -0.65067 v -0.11733 l 1.82401,-0.36267 v 1.67467 l 0.0853,0.0747 q 0.24533,-0.52267 0.58667,-0.93867 0.34133,-0.416 0.75734,-0.65067 0.42666,-0.23466 0.90666,-0.23466 0.38401,0 0.67201,0.11733 0.288,0.11733 0.48,0.352 0.192,0.224 0.27733,0.56534 0.096,0.34133 0.096,0.78933 v 3.43468 l 0.608,0.128 v 0.10667 h -2.38934 v -0.10667 l 0.60801,-0.128 v -3.54135 q 0,-0.64 -0.224,-0.96 -0.21334,-0.32 -0.65067,-0.32 -0.256,0 -0.52267,0.18133 -0.256,0.17067 -0.50134,0.45867 -0.24533,0.288 -0.448,0.61867 -0.192,0.33067 -0.34133,0.64 v 2.92268 l 0.608,0.128 v 0.10667 z m 7.70136,0 v -0.10667 l 0.608,-0.128 v -3.54135 q 0,-0.64 -0.224,-0.96 -0.224,-0.32 -0.65067,-0.32 -0.26667,0 -0.53333,0.18133 -0.256,0.17067 -0.50134,0.45867 -0.23467,0.288 -0.43733,0.61867 -0.20267,0.33067 -0.34134,0.64 v -0.58667 l 0.0853,0.0747 q 0.24533,-0.52267 0.576,-0.93867 0.34133,-0.416 0.768,-0.65067 0.42667,-0.23466 0.896,-0.23466 0.42667,0 0.71467,0.13866 0.29867,0.128 0.46934,0.37334 0.18133,0.24533 0.26666,0.58667 0.0853,0.34133 0.0853,0.77866 v 3.38135 l 0.65067,0.128 v 0.10667 z"
         id="path3" />
    </g>
  </g>
</svg>
